<?xml version="1.0" encoding="UTF-8" standalone="no"?>
<!-- Generator: Adobe Illustrator 17.0.1, SVG Export Plug-In . SVG Version: 6.00 Build 0)  -->

<svg
   xmlns:dc="http://purl.org/dc/elements/1.1/"
   xmlns:cc="http://creativecommons.org/ns#"
   xmlns:rdf="http://www.w3.org/1999/02/22-rdf-syntax-ns#"
   xmlns:svg="http://www.w3.org/2000/svg"
   xmlns="http://www.w3.org/2000/svg"
   xmlns:sodipodi="http://sodipodi.sourceforge.net/DTD/sodipodi-0.dtd"
   xmlns:inkscape="http://www.inkscape.org/namespaces/inkscape"
   version="1.1"
   id="Calque_1"
   x="0px"
   y="0px"
   width="218px"
   height="240px"
   viewBox="0 0 218 240"
   enable-background="new 0 0 218 240"
   xml:space="preserve"
   inkscape:version="0.48.4 r9939"
   sodipodi:docname="ampoule.svg"><metadata
     id="metadata3097"><rdf:RDF><cc:Work
         rdf:about=""><dc:format>image/svg+xml</dc:format><dc:type
           rdf:resource="http://purl.org/dc/dcmitype/StillImage" /></cc:Work></rdf:RDF></metadata><defs
     id="defs3095" /><sodipodi:namedview
     pagecolor="#ffffff"
     bordercolor="#666666"
     borderopacity="1"
     objecttolerance="10"
     gridtolerance="10"
     guidetolerance="10"
     inkscape:pageopacity="0"
     inkscape:pageshadow="2"
     inkscape:window-width="1600"
     inkscape:window-height="834"
     id="namedview3093"
     showgrid="false"
     inkscape:zoom="1"
     inkscape:cx="111"
     inkscape:cy="120"
     inkscape:window-x="0"
     inkscape:window-y="327"
     inkscape:window-maximized="1"
     inkscape:current-layer="g3063" /><g
     id="g3063"><path
       inkscape:connector-curvature="0"
       id="path3067"
       d="m 89,218 c -1.179,-0.606 -2.901,-0.913 -3.431,-1.876 -1.421,-2.581 -3.646,-5.765 -3.075,-8.105 0.574,-2.353 4.078,-5.58 6.394,-5.661 14.977,-0.518 29.989,-0.524 44.968,-0.039 2.374,0.077 5.931,3.117 6.591,5.452 0.654,2.316 -1.516,5.537 -2.752,8.221 -0.412,0.893 -1.768,1.351 -2.693,2.008 -15.335,0 -30.669,0 -46.002,0 z"
       style="fill:#ffffff" /><path
       inkscape:connector-curvature="0"
       id="path3071"
       d="m 113,172.653 c -7.496,0.002 -14.995,0.126 -22.488,-0.025 -13.689,-0.274 -19.928,-6.21 -20.132,-19.914 -0.09,-6.04 -1.902,-10.765 -5.727,-15.378 C 55.88,126.757 48.18,115.457 46.038,101.414 40.291,63.739 65.301,31.884 103.545,28.056 c 11.418,-1.143 22.622,-0.233 33.529,3.472 34.992,11.887 51.572,52.453 34.507,85.837 -4.497,8.798 -11.02,16.604 -16.978,24.593 -2.904,3.894 -7.738,4.121 -11.028,1.335 -3.293,-2.789 -3.62,-7.189 -0.685,-11.171 3.457,-4.691 7.175,-9.195 10.508,-13.97 11.12,-15.932 12.027,-33.086 3.991,-50.234 -7.975,-17.017 -23.371,-23.335 -41.115,-24.769 -10.133,-0.819 -19.911,1.029 -29.143,5.42 -25.041,11.91 -34.247,41.818 -19.994,65.622 3.237,5.406 6.984,10.593 11.088,15.374 5.178,6.032 7.438,12.832 7.581,20.603 0.127,6.922 0.204,6.931 7.296,6.934 13.992,0.007 27.985,0.002 41.977,0.003 1.166,0 2.335,-0.043 3.498,0.019 4.897,0.259 8.21,3.273 8.333,7.539 0.127,4.448 -3.247,7.845 -8.424,7.943 -8.493,0.163 -16.991,0.045 -25.486,0.047 z"
       style="fill:#ffffff" /><path
       inkscape:connector-curvature="0"
       id="path3075"
       d="m 111.511,180.155 c 8.321,0 16.643,-0.055 24.963,0.019 5.574,0.05 9.108,3.159 9.098,7.773 -0.01,4.547 -3.61,7.736 -9.161,7.759 -16.642,0.068 -33.285,0.071 -49.927,-0.002 -5.54,-0.024 -9.133,-3.257 -9.114,-7.82 0.019,-4.562 3.608,-7.664 9.177,-7.711 8.322,-0.07 16.643,-0.018 24.964,-0.018 z"
       style="fill:#ffffff" /></g></svg>