<?xml version="1.0" encoding="UTF-8" standalone="no"?>
<!-- Generator: Adobe Illustrator 17.1.0, SVG Export Plug-In . SVG Version: 6.00 Build 0)  -->

<svg
   xmlns:dc="http://purl.org/dc/elements/1.1/"
   xmlns:cc="http://creativecommons.org/ns#"
   xmlns:rdf="http://www.w3.org/1999/02/22-rdf-syntax-ns#"
   xmlns:svg="http://www.w3.org/2000/svg"
   xmlns="http://www.w3.org/2000/svg"
   xmlns:sodipodi="http://sodipodi.sourceforge.net/DTD/sodipodi-0.dtd"
   xmlns:inkscape="http://www.inkscape.org/namespaces/inkscape"
   version="1.1"
   id="Layer_1"
   x="0px"
   y="0px"
   viewBox="0 0 128 128"
   enable-background="new 0 0 128 128"
   xml:space="preserve"
   inkscape:version="0.48.4 r9939"
   width="100%"
   height="100%"
   sodipodi:docname="audio.svg"><metadata
   id="metadata3129"><rdf:RDF><cc:Work
       rdf:about=""><dc:format>image/svg+xml</dc:format><dc:type
         rdf:resource="http://purl.org/dc/dcmitype/StillImage" /><dc:title></dc:title></cc:Work></rdf:RDF></metadata><defs
   id="defs3127"><inkscape:path-effect
     effect="skeletal"
     id="path-effect3041"
     is_visible="true"
     pattern="M 0,0 0,10 10,5 z"
     copytype="single_stretched"
     prop_scale="1"
     scale_y_rel="false"
     spacing="0"
     normal_offset="0"
     tang_offset="0"
     prop_units="false"
     vertical_pattern="false"
     fuse_tolerance="0" /></defs><sodipodi:namedview
   pagecolor="#ffffff"
   bordercolor="#666666"
   borderopacity="1"
   objecttolerance="10"
   gridtolerance="10"
   guidetolerance="10"
   inkscape:pageopacity="0"
   inkscape:pageshadow="2"
   inkscape:window-width="1920"
   inkscape:window-height="1058"
   id="namedview3125"
   showgrid="false"
   showguides="true"
   inkscape:guide-bbox="true"
   inkscape:zoom="5.6568543"
   inkscape:cx="136.25293"
   inkscape:cy="59.0276"
   inkscape:window-x="-8"
   inkscape:window-y="-8"
   inkscape:window-maximized="1"
   inkscape:current-layer="Layer_1"><sodipodi:guide
     orientation="0,1"
     position="-19.389831,107.79661"
     id="guide3131" /><sodipodi:guide
     orientation="1,0"
     position="53.875,141.375"
     id="guide3133" /><sodipodi:guide
     orientation="1,0"
     position="73.875,138.75"
     id="guide3135" /><sodipodi:guide
     orientation="1,0"
     position="-54.237288,6.9152542"
     id="guide3139" /><sodipodi:guide
     orientation="0,1"
     position="-33.898305,19.932203"
     id="guide3141" /><sodipodi:guide
     orientation="1,0"
     position="63,46.625"
     id="guide3364" /><sodipodi:guide
     orientation="0,1"
     position="53.125,145"
     id="guide3366" /><sodipodi:guide
     orientation="1,0"
     position="163.67312,110.13188"
     id="guide4352" /><sodipodi:guide
     orientation="1,0"
     position="172.2247,109.84462"
     id="guide4354" /><sodipodi:guide
     orientation="1,0"
     position="167.98205,109.9551"
     id="guide4356" /></sodipodi:namedview>


<g
   id="g3011"
   transform="matrix(0.01994799,0,0,-0.0229835,13.0109,119.81518)"
   style="fill:#ffffff;stroke:none"><path
     id="path3013"
     d="m 2574,4240 c -19,-6 -259,-207 -592,-495 l -561,-485 -518,0 c -321,0 -532,-4 -555,-10 -44,-13 -93,-66 -107,-117 -15,-54 -15,-1304 0,-1358 14,-50 64,-100 114,-114 27,-7 210,-11 546,-11 l 507,0 543,-471 c 299,-259 560,-482 580,-495 75,-51 173,-37 227,34 l 27,35 3,1685 c 2,1553 1,1686 -14,1719 -32,67 -126,105 -200,83 z"
     inkscape:connector-curvature="0"
     style="fill:#ffffff" /><path
     id="path3015"
     d="m 4030,4211 c -67,-35 -103,-119 -81,-189 6,-21 38,-73 71,-117 251,-332 410,-726 472,-1170 19,-137 16,-485 -6,-630 -64,-427 -225,-807 -499,-1173 -28,-38 -32,-52 -32,-105 0,-74 25,-116 85,-147 48,-24 87,-25 141,-3 34,13 56,36 119,121 367,494 554,1093 537,1717 -11,380 -84,710 -233,1049 -109,249 -332,594 -417,646 -41,25 -111,26 -157,1 z"
     inkscape:connector-curvature="0"
     style="fill:#ffffff" /><path
     id="path3017"
     d="m 3615,3785 c -48,-17 -92,-66 -101,-113 -12,-64 1,-105 71,-208 338,-502 406,-1142 180,-1705 -53,-131 -92,-205 -182,-341 -77,-118 -86,-160 -51,-228 31,-61 77,-90 142,-90 31,0 65,7 86,18 80,43 280,399 360,642 179,544 137,1137 -117,1644 -116,231 -213,364 -281,384 -49,15 -57,15 -107,-3 z"
     inkscape:connector-curvature="0"
     style="fill:#ffffff" /><path
     id="path3019"
     d="m 3134,3311 c -54,-24 -86,-71 -92,-132 -5,-52 7,-91 46,-151 13,-20 41,-78 63,-128 144,-333 120,-735 -62,-1042 -51,-87 -58,-138 -27,-198 31,-60 77,-90 140,-90 97,0 135,36 222,209 50,98 112,285 131,395 57,330 9,648 -143,954 -90,182 -168,233 -278,183 z"
     inkscape:connector-curvature="0"
     style="fill:#ffffff" /></g></svg>