<?xml version="1.0" encoding="UTF-8" standalone="no"?>
<!-- Created with Inkscape (http://www.inkscape.org/) -->

<svg
   xmlns:dc="http://purl.org/dc/elements/1.1/"
   xmlns:cc="http://creativecommons.org/ns#"
   xmlns:rdf="http://www.w3.org/1999/02/22-rdf-syntax-ns#"
   xmlns:svg="http://www.w3.org/2000/svg"
   xmlns="http://www.w3.org/2000/svg"
   xmlns:sodipodi="http://sodipodi.sourceforge.net/DTD/sodipodi-0.dtd"
   xmlns:inkscape="http://www.inkscape.org/namespaces/inkscape"
   width="1513.3363"
   height="800"
   id="svg2"
   sodipodi:version="0.32"
   inkscape:version="0.91 r13725"
   sodipodi:docname="exit.svg"
   inkscape:output_extension="org.inkscape.output.svg.inkscape"
   version="1.1">
  <defs
     id="defs4">
    <inkscape:perspective
       sodipodi:type="inkscape:persp3d"
       inkscape:vp_x="0 : 526.18109 : 1"
       inkscape:vp_y="0 : 1000 : 0"
       inkscape:vp_z="744.09448 : 526.18109 : 1"
       inkscape:persp3d-origin="372.04724 : 350.78739 : 1"
       id="perspective10" />
    <inkscape:perspective
       id="perspective2390"
       inkscape:persp3d-origin="372.04724 : 350.78739 : 1"
       inkscape:vp_z="744.09448 : 526.18109 : 1"
       inkscape:vp_y="0 : 1000 : 0"
       inkscape:vp_x="0 : 526.18109 : 1"
       sodipodi:type="inkscape:persp3d" />
  </defs>
  <sodipodi:namedview
     id="base"
     pagecolor="#ffffff"
     bordercolor="#666666"
     borderopacity="1.0"
     gridtolerance="10000"
     guidetolerance="10"
     objecttolerance="10"
     inkscape:pageopacity="0.0"
     inkscape:pageshadow="2"
     inkscape:zoom="0.35000001"
     inkscape:cx="273.62232"
     inkscape:cy="416.55622"
     inkscape:document-units="px"
     inkscape:current-layer="layer1"
     showgrid="false"
     inkscape:window-width="1280"
     inkscape:window-height="848"
     inkscape:window-x="75"
     inkscape:window-y="24"
     fit-margin-top="0"
     fit-margin-left="0"
     fit-margin-right="0"
     fit-margin-bottom="0"
     inkscape:window-maximized="0">
    <inkscape:grid
       type="xygrid"
       id="grid2401"
       empspacing="5"
       visible="true"
       enabled="true"
       snapvisiblegridlinesonly="true"
       originx="-47.982237px"
       originy="-555.3766px" />
  </sodipodi:namedview>
  <metadata
     id="metadata7">
    <rdf:RDF>
      <cc:Work
         rdf:about="">
        <dc:format>image/svg+xml</dc:format>
        <dc:type
           rdf:resource="http://purl.org/dc/dcmitype/StillImage" />
        <dc:title></dc:title>
      </cc:Work>
    </rdf:RDF>
  </metadata>
  <g
     inkscape:label="Layer 1"
     inkscape:groupmode="layer"
     id="layer1"
     transform="translate(-47.982237,303.01443)">
    <rect
       style="fill:none;fill-opacity:1;stroke:none"
       id="rect3183"
       width="1513.3363"
       height="800"
       x="47.982235"
       y="-303.01443"
       rx="0"
       ry="0" />
    <path
       inkscape:connector-curvature="0"
       style="fill:#ffffff;fill-opacity:1"
       d="m 1143.4523,-195.01339 326.6541,0 c 15.3005,0 27.6142,12.69937 27.6142,28.44064 l 0,504.20156 c 0,15.74128 -12.3137,28.39203 -27.6142,28.39203 l -326.6541,0 c -15.3006,-3e-5 -27.6142,-12.65075 -27.6142,-28.39203 l 0,-504.20156 c 0,-15.74127 12.3136,-28.44064 27.6142,-28.44064 z m -734.64374,11.76519 c 13.2543,-0.16351 26.94119,4.37582 38.30979,13.75847 24.25298,20.0163 28.7967,54.57397 10.16085,77.154356 -18.63585,22.580389 -53.43613,24.634866 -77.68915,4.618566 -24.25301,-20.016302 -28.7967,-54.573972 -10.16084,-77.154362 9.90031,-11.99583 24.35782,-18.19172 39.37935,-18.37703 z m 751.27054,10.40393 c -7.8488,0.39714 -12.8348,6.70338 -12.8348,14.63356 l 0,484.31742 c 0,9.06306 7.3207,19.08532 16.3838,16.33514 l 122.8539,-29.85053 c 11.0274,-3.53591 16.3837,-7.27207 16.3837,-16.33513 l 0,-419.51165 c 0,-9.06307 -8.1064,-14.02647 -16.3837,-16.38375 l -122.8539,-33.0106 c -1.2311,-0.19644 -2.4277,-0.2512 -3.549,-0.19446 z m -843.35016,92.857483 c 8.474,-0.05848 17.94183,0.666707 27.27385,3.549004 l 61.20815,22.412199 c 12.89236,4.619616 23.40088,10.506164 33.54538,20.46754 l 66.79905,71.028684 76.76542,2.284974 c 33.7715,0.828284 39.97234,46.908809 6.7577,56.638205 -3.96341,0.59435 -30.14503,0.763862 -58.14532,0.388932 -63.10911,-0.845072 -59.20844,0.395715 -79.73103,-25.523655 L 411.67693,23.809408 393.64022,90.122292 c -2.58445,8.919064 -1.0087,11.452068 1.65296,15.168348 l 62.61803,65.72948 c 9.5646,12.49603 8.22625,27.7086 3.64624,41.90741 l -46.91491,148.42613 c -13.83428,50.67591 -81.9774,31.41264 -63.54175,-24.64856 l 38.50426,-134.23011 -42.68527,-37.24023 -50.17222,62.13187 c -8.77405,12.16406 -18.20386,21.13104 -53.62398,24.21101 L 130.91674,262.6622 c -36.460018,4.78099 -41.417374,-52.34437 -9.09129,-58.9718 l 105.59501,-15.31419 66.31288,-98.497 3.40316,-97.2329689 -41.90741,22.2177329 c -20.62476,10.59841 -20.69269,10.682587 -22.7039,21.682953 l -9.62606,53.721215 C 211.46434,141.10319 155.37017,120.73076 164.46211,71.745261 l 13.36953,-81.1895287 c 2.17617,-8.6449133 -0.66507,-6.5586683 35.3928,-26.5932173 9.83998,-5.467308 31.72423,-17.176691 50.80423,-26.5446 19.23281,-9.442932 32.23122,-17.132465 52.70027,-17.404702 z m 548.68564,106.275635 206.27972,82.356322 -206.27972,80.99507 0,-46.67183 -217.80185,0 0,-70.007737 217.80185,0 0,-46.671825 z"
       id="path2396"
       sodipodi:nodetypes="ccccccccccssssccccccccccccccccccsccccccccccccccccccccccssccccccccc" />
  </g>
</svg>
